# xmcd CD database file
#
# Track frame offsets:
#	150
#	20575
#	33867
#	51790
#	73890
#	90680
#	107487
#	125672
#	142950
#	160755
#	182395
#	204225
#
# Disc length: 3050 seconds
#
# Revision: 2
# Processed by: cddbd v1.5.2PL0 Copyright (c) Steve Scherf et al.
# Submitted via: CDex 1.51
#
DISCID=9a0be80c
DTITLE=Roy Rogers and Shana Morrison - Everybody's Angel
DYEAR=1999
DGENRE=
TTITLE0=Molly O and Dog Boy
TTITLE1=Joey
TTITLE2=You Choose
TTITLE3=Nothing Left To Lose
TTITLE4=Here We Go
TTITLE5=Mate of Fate
TTITLE6=Hello Stranger
TTITLE7=Therapy
TTITLE8=Amy Sky
TTITLE9=Playin the Fool
TTITLE10=Lover's Moon
TTITLE11=Everybody's Angel
EXTD=Shana Morrison YEAR: 1999
EXTT0=
EXTT1=
EXTT2=
EXTT3=
EXTT4=
EXTT5=
EXTT6=
EXTT7=
EXTT8=
EXTT9=
EXTT10=
EXTT11=
PLAYORDER=
